<svg width="117" height="117" viewBox="0 0 117 117" fill="none" xmlns="http://www.w3.org/2000/svg">
    <rect width="117" height="117" rx="13.2955" fill="white" />
    <path d="M98.3864 55.1761C98.3864 76.8376 80.8263 94.3977 59.1648 94.3977C37.5033 94.3977 19.9432 76.8376 19.9432 55.1761C19.9432 33.5146 37.5033 15.9545 59.1648 15.9545C80.8263 15.9545 98.3864 33.5146 98.3864 55.1761ZM28.2083 55.1761C28.2083 72.2729 42.068 86.1326 59.1648 86.1326C76.2616 86.1326 90.1212 72.2729 90.1212 55.1761C90.1212 38.0793 76.2616 24.2197 59.1648 24.2197C42.068 24.2197 28.2083 38.0793 28.2083 55.1761Z" fill="#292D32" />
    <path d="M41.8807 105.034V33.9034H53.1818V85.0909L81.767 17.2841H96.3921L54.5114 105.034H41.8807Z" fill="#292D32" />
    <path d="M41.8807 33.9034V105.034H54.5114L96.3921 17.2841H81.767L53.1818 85.0909V33.9034H41.2159" stroke="white" stroke-width="1.32955" />
</svg>