<svg width="88" height="88" viewBox="0 0 88 88" fill="none" xmlns="http://www.w3.org/2000/svg">
    <rect width="88" height="88" rx="10" fill="#FF0000"/>
    <path d="M74 41.5C74 57.7924 60.7924 71 44.5 71C28.2076 71 15 57.7924 15 41.5C15 25.2076 28.2076 12 44.5 12C60.7924 12 74 25.2076 74 41.5ZM21.2165 41.5C21.2165 54.3591 31.6409 64.7835 44.5 64.7835C57.3591 64.7835 67.7835 54.3591 67.7835 41.5C67.7835 28.6409 57.3591 18.2165 44.5 18.2165C31.6409 18.2165 21.2165 28.6409 21.2165 41.5Z" fill="white"/>
    <path d="M31.5 79V25.5H40V64L61.5 13H72.5L41 79H31.5Z" fill="white"/>
    <path d="M31.5 25.5V79H41L72.5 13H61.5L40 64V25.5H31" stroke="#FF0000"/>
    </svg>
    